<?xml version="1.0" standalone="no"?>
<!DOCTYPE svg PUBLIC "-//W3C//DTD SVG 20010904//EN" "http://www.w3.org/TR/2001/REC-SVG-20010904/DTD/svg10.dtd">
<svg version="1.0" xmlns="http://www.w3.org/2000/svg"
    width="679.000000pt" height="342.000000pt" viewBox="0 0 679.000000 342.000000"
    preserveAspectRatio="xMidYMid meet">
    <metadata> Created by potrace 1.16, written by Peter Selinger 2001-2019 </metadata>
    <g transform="translate(0.000000,342.000000) scale(0.100000,-0.100000)"
        fill="#000000" stroke="none">
        <path
            d="M2655 2656 c-26 -27 -29 -45 -11 -87 6 -13 1 -15 -24 -11 -48 7 -120
-8 -141 -29 -47 -47 -10 -146 71 -186 61 -31 193 -31 455 2 l50 6 -59 -25
c-112 -48 -131 -90 -69 -152 40 -40 109 -74 193 -94 30 -8 59 -17 63 -20 8 -7
-388 -242 -518 -308 -43 -22 -86 -34 -152 -43 -51 -6 -93 -16 -93 -20 0 -5 19
-7 43 -4 23 2 78 7 121 10 l79 5 334 176 c240 126 341 174 361 172 l27 -3 36
-224 37 -224 -50 -165 c-40 -134 -57 -174 -88 -216 -48 -63 -33 -73 24 -17 38
37 47 57 101 220 l59 179 -28 214 c-15 117 -30 221 -32 230 -4 13 2 19 23 23
15 3 62 17 103 29 l75 24 27 -22 c26 -20 27 -25 28 -121 l0 -100 163 -262 162
-263 63 -21 c35 -12 66 -18 70 -14 4 4 3 9 -3 12 -5 2 -31 16 -58 31 -43 26
-59 48 -196 278 l-149 251 8 67 c4 37 10 69 12 71 2 2 14 -32 27 -76 l24 -79
93 -75 92 -76 12 -72 c16 -99 18 -102 19 -24 l1 68 112 -91 113 -90 62 0 c35
0 63 4 63 9 0 9 -47 21 -82 21 -11 0 -77 49 -148 110 l-127 109 -7 69 c-6 62
-4 73 20 120 25 48 26 56 15 92 -6 21 -22 47 -35 57 -20 16 -24 30 -28 94 -3
61 -11 89 -46 163 -69 146 -143 218 -206 202 -15 -4 -44 -22 -65 -41 -21 -19
-44 -35 -50 -35 -6 0 -201 43 -434 96 -514 116 -507 115 -542 80z" />
        <path
            d="M2061 849 c-78 -24 -111 -67 -111 -145 0 -42 5 -51 43 -89 27 -28 63
-50 104 -65 72 -26 98 -49 88 -79 -13 -42 -84 -39 -142 5 -17 13 -36 24 -40
24 -5 0 -26 -17 -47 -39 l-37 -38 41 -36 c45 -38 115 -67 162 -67 104 0 191
62 203 144 14 88 -22 131 -147 181 -90 36 -110 54 -89 79 19 22 66 20 112 -6
l40 -22 37 37 c30 31 35 40 26 55 -31 49 -169 84 -243 61z" />
        <path
            d="M4139 851 c-71 -23 -114 -72 -124 -143 l-7 -48 61 0 c55 0 61 2 61
20 0 22 41 70 60 70 15 0 50 -38 50 -55 0 -8 -52 -76 -115 -152 -102 -122
-115 -141 -115 -175 l0 -38 175 0 175 0 0 55 0 55 -80 0 c-44 0 -80 3 -80 6 0
4 29 39 63 78 87 97 99 118 99 170 0 63 -30 114 -82 141 -34 17 -109 26 -141
16z" />
        <path
            d="M5199 851 c-71 -23 -114 -72 -124 -143 l-7 -48 61 0 c55 0 61 2 61
20 0 22 41 70 60 70 15 0 50 -38 50 -55 0 -8 -52 -76 -115 -152 -102 -122
-115 -141 -115 -175 l0 -38 175 0 175 0 0 55 0 55 -80 0 c-44 0 -80 3 -80 6 0
4 29 39 63 78 87 97 99 118 99 170 0 63 -30 114 -82 141 -34 17 -109 26 -141
16z" />
        <path
            d="M5637 846 c-70 -25 -107 -76 -107 -146 l0 -41 58 3 c54 3 57 4 60 31
2 16 14 34 28 43 22 15 26 15 49 0 14 -9 25 -26 25 -39 0 -14 -44 -73 -115
-157 -103 -122 -115 -138 -112 -170 l2 -35 178 -3 177 -2 0 54 0 55 -87 3 -87
3 68 75 c74 82 106 136 106 175 0 66 -57 135 -128 155 -48 13 -68 12 -115 -4z" />
        <path
            d="M938 844 c-5 -4 -8 -122 -8 -262 l0 -254 138 4 c155 4 192 16 252 84
45 52 62 99 62 170 1 106 -56 194 -152 238 -35 16 -71 21 -165 24 -66 2 -123
0 -127 -4z m249 -144 c83 -50 84 -176 1 -225 -16 -9 -50 -18 -76 -18 l-47 -2
-3 133 -3 132 48 0 c30 0 60 -7 80 -20z" />
        <path
            d="M1487 844 c-4 -4 -7 -121 -7 -261 l0 -253 193 2 192 3 0 55 0 55
-128 3 -128 3 3 42 3 42 93 3 92 3 0 49 0 50 -96 0 -95 0 3 43 3 42 123 3 123
3 -3 57 -3 57 -181 3 c-99 1 -183 -1 -187 -4z" />
        <path
            d="M2561 828 c-7 -18 -164 -423 -188 -485 -4 -10 12 -13 62 -13 l67 0
15 40 16 41 95 -3 95 -3 12 -35 c12 -35 12 -35 78 -38 37 -2 67 1 67 6 0 9
-184 485 -194 501 -4 6 -32 11 -62 11 -47 0 -56 -3 -63 -22z" />
        <path
            d="M2950 591 l0 -261 65 0 65 0 0 90 0 90 70 0 c75 0 111 13 146 52 35
37 46 67 46 118 -1 60 -21 101 -69 137 -35 27 -41 28 -180 31 l-143 4 0 -261z" />
        <path
            d="M4604 826 c-138 -64 -192 -234 -116 -370 85 -153 297 -180 422 -54
77 76 96 207 47 304 -65 128 -221 181 -353 120z m192 -121 c14 -9 35 -37 45
-61 26 -57 17 -105 -27 -153 -30 -34 -36 -36 -93 -36 -52 0 -63 4 -90 29 -56
54 -63 127 -18 190 39 55 124 70 183 31z" />
        <path
            d="M3580 784 c-46 -20 -87 -60 -112 -108 -31 -60 -23 -161 18 -218 43
-61 104 -93 179 -92 128 0 216 87 216 213 1 158 -159 267 -301 205z m180 -28
c59 -29 99 -86 107 -153 5 -44 1 -61 -21 -106 -44 -90 -129 -132 -231 -113
-85 16 -166 138 -150 224 15 86 83 157 164 172 46 9 75 4 131 -24z" />
        <path
            d="M3505 664 c-22 -46 -21 -117 1 -166 9 -21 20 -38 23 -38 6 0 165 161
211 213 l23 27 -120 0 -121 0 -17 -36z" />
        <path
            d="M3680 585 l-115 -115 122 0 c121 0 123 0 139 26 25 37 24 130 -1 172
-11 17 -22 32 -25 32 -3 0 -57 -52 -120 -115z" />
    </g>
</svg>